<mxfile host="app.diagrams.net" modified="2022-06-08T14:28:56.952Z" agent="5.0 (Windows NT 10.0; Win64; x64) AppleWebKit/537.36 (KHTML, like Gecko) Chrome/102.0.0.0 Safari/537.36" etag="LzTjDw-1TA0qwp-V9qHy" version="19.0.2" type="github">
  <diagram id="C5RBs43oDa-KdzZeNtuy" name="Page-1">
    <mxGraphModel dx="1422" dy="762" grid="1" gridSize="10" guides="1" tooltips="1" connect="1" arrows="1" fold="1" page="1" pageScale="1" pageWidth="1654" pageHeight="1169" math="0" shadow="0">
      <root>
        <mxCell id="WIyWlLk6GJQsqaUBKTNV-0" />
        <mxCell id="WIyWlLk6GJQsqaUBKTNV-1" parent="WIyWlLk6GJQsqaUBKTNV-0" />
        <mxCell id="_EIms9iZTKMeKdA6Zoc8-3" style="edgeStyle=orthogonalEdgeStyle;rounded=0;orthogonalLoop=1;jettySize=auto;html=1;exitX=1;exitY=0.5;exitDx=0;exitDy=0;" edge="1" parent="WIyWlLk6GJQsqaUBKTNV-1" source="_EIms9iZTKMeKdA6Zoc8-2">
          <mxGeometry relative="1" as="geometry">
            <mxPoint x="240" y="60" as="targetPoint" />
          </mxGeometry>
        </mxCell>
        <mxCell id="_EIms9iZTKMeKdA6Zoc8-2" value="User clicks on&lt;br&gt;&#39;Create new account&#39;" style="rounded=1;whiteSpace=wrap;html=1;fillColor=#fff2cc;strokeColor=#d6b656;" vertex="1" parent="WIyWlLk6GJQsqaUBKTNV-1">
          <mxGeometry x="40" y="30" width="120" height="60" as="geometry" />
        </mxCell>
        <mxCell id="_EIms9iZTKMeKdA6Zoc8-6" value="" style="edgeStyle=orthogonalEdgeStyle;rounded=0;orthogonalLoop=1;jettySize=auto;html=1;" edge="1" parent="WIyWlLk6GJQsqaUBKTNV-1" source="_EIms9iZTKMeKdA6Zoc8-4" target="_EIms9iZTKMeKdA6Zoc8-5">
          <mxGeometry relative="1" as="geometry" />
        </mxCell>
        <mxCell id="_EIms9iZTKMeKdA6Zoc8-4" value="Display account&lt;br&gt;creating UI" style="rounded=0;whiteSpace=wrap;html=1;fillColor=#d5e8d4;strokeColor=#82b366;" vertex="1" parent="WIyWlLk6GJQsqaUBKTNV-1">
          <mxGeometry x="240" y="30" width="120" height="60" as="geometry" />
        </mxCell>
        <mxCell id="_EIms9iZTKMeKdA6Zoc8-7" style="edgeStyle=orthogonalEdgeStyle;rounded=0;orthogonalLoop=1;jettySize=auto;html=1;exitX=1;exitY=0.5;exitDx=0;exitDy=0;" edge="1" parent="WIyWlLk6GJQsqaUBKTNV-1" source="_EIms9iZTKMeKdA6Zoc8-5">
          <mxGeometry relative="1" as="geometry">
            <mxPoint x="640" y="60" as="targetPoint" />
          </mxGeometry>
        </mxCell>
        <mxCell id="_EIms9iZTKMeKdA6Zoc8-8" style="edgeStyle=orthogonalEdgeStyle;rounded=0;orthogonalLoop=1;jettySize=auto;html=1;exitX=0.5;exitY=1;exitDx=0;exitDy=0;entryX=0;entryY=0.5;entryDx=0;entryDy=0;" edge="1" parent="WIyWlLk6GJQsqaUBKTNV-1" source="_EIms9iZTKMeKdA6Zoc8-5" target="_EIms9iZTKMeKdA6Zoc8-28">
          <mxGeometry relative="1" as="geometry">
            <mxPoint x="500" y="190" as="targetPoint" />
          </mxGeometry>
        </mxCell>
        <mxCell id="_EIms9iZTKMeKdA6Zoc8-5" value="Are all data&lt;br&gt;passed?" style="rhombus;whiteSpace=wrap;html=1;fillColor=#dae8fc;strokeColor=#6c8ebf;rounded=0;" vertex="1" parent="WIyWlLk6GJQsqaUBKTNV-1">
          <mxGeometry x="440" y="20" width="120" height="80" as="geometry" />
        </mxCell>
        <mxCell id="_EIms9iZTKMeKdA6Zoc8-9" value="Yes" style="text;html=1;strokeColor=none;fillColor=none;align=center;verticalAlign=middle;whiteSpace=wrap;rounded=0;" vertex="1" parent="WIyWlLk6GJQsqaUBKTNV-1">
          <mxGeometry x="570" y="30" width="60" height="30" as="geometry" />
        </mxCell>
        <mxCell id="_EIms9iZTKMeKdA6Zoc8-16" style="edgeStyle=orthogonalEdgeStyle;rounded=0;orthogonalLoop=1;jettySize=auto;html=1;exitX=1;exitY=0.5;exitDx=0;exitDy=0;" edge="1" parent="WIyWlLk6GJQsqaUBKTNV-1" source="_EIms9iZTKMeKdA6Zoc8-11">
          <mxGeometry relative="1" as="geometry">
            <mxPoint x="840" y="60" as="targetPoint" />
          </mxGeometry>
        </mxCell>
        <mxCell id="_EIms9iZTKMeKdA6Zoc8-22" style="edgeStyle=orthogonalEdgeStyle;rounded=0;orthogonalLoop=1;jettySize=auto;html=1;" edge="1" parent="WIyWlLk6GJQsqaUBKTNV-1" source="_EIms9iZTKMeKdA6Zoc8-11">
          <mxGeometry relative="1" as="geometry">
            <mxPoint x="700" y="160" as="targetPoint" />
          </mxGeometry>
        </mxCell>
        <mxCell id="_EIms9iZTKMeKdA6Zoc8-11" value="Are all data&lt;br&gt;correct?" style="rhombus;whiteSpace=wrap;html=1;fillColor=#dae8fc;strokeColor=#6c8ebf;rounded=0;" vertex="1" parent="WIyWlLk6GJQsqaUBKTNV-1">
          <mxGeometry x="640" y="20" width="120" height="80" as="geometry" />
        </mxCell>
        <mxCell id="_EIms9iZTKMeKdA6Zoc8-17" value="Yes" style="text;html=1;strokeColor=none;fillColor=none;align=center;verticalAlign=middle;whiteSpace=wrap;rounded=0;" vertex="1" parent="WIyWlLk6GJQsqaUBKTNV-1">
          <mxGeometry x="767" y="30" width="60" height="30" as="geometry" />
        </mxCell>
        <mxCell id="_EIms9iZTKMeKdA6Zoc8-19" style="edgeStyle=orthogonalEdgeStyle;rounded=0;orthogonalLoop=1;jettySize=auto;html=1;exitX=1;exitY=0.5;exitDx=0;exitDy=0;" edge="1" parent="WIyWlLk6GJQsqaUBKTNV-1" source="_EIms9iZTKMeKdA6Zoc8-18">
          <mxGeometry relative="1" as="geometry">
            <mxPoint x="1040" y="60" as="targetPoint" />
          </mxGeometry>
        </mxCell>
        <mxCell id="_EIms9iZTKMeKdA6Zoc8-18" value="Add new account to&lt;br&gt;the accounts array" style="rounded=0;whiteSpace=wrap;html=1;fillColor=#d5e8d4;strokeColor=#82b366;" vertex="1" parent="WIyWlLk6GJQsqaUBKTNV-1">
          <mxGeometry x="840" y="30" width="120" height="60" as="geometry" />
        </mxCell>
        <mxCell id="_EIms9iZTKMeKdA6Zoc8-21" value="Hide sign up UI &amp;amp;&lt;br&gt;display login UI" style="rounded=0;whiteSpace=wrap;html=1;fillColor=#d5e8d4;strokeColor=#82b366;" vertex="1" parent="WIyWlLk6GJQsqaUBKTNV-1">
          <mxGeometry x="1040" y="30" width="120" height="60" as="geometry" />
        </mxCell>
        <mxCell id="_EIms9iZTKMeKdA6Zoc8-26" value="No" style="text;html=1;strokeColor=none;fillColor=none;align=center;verticalAlign=middle;whiteSpace=wrap;rounded=0;" vertex="1" parent="WIyWlLk6GJQsqaUBKTNV-1">
          <mxGeometry x="490" y="110" width="60" height="30" as="geometry" />
        </mxCell>
        <mxCell id="_EIms9iZTKMeKdA6Zoc8-27" value="No" style="text;html=1;strokeColor=none;fillColor=none;align=center;verticalAlign=middle;whiteSpace=wrap;rounded=0;" vertex="1" parent="WIyWlLk6GJQsqaUBKTNV-1">
          <mxGeometry x="690" y="110" width="60" height="30" as="geometry" />
        </mxCell>
        <mxCell id="_EIms9iZTKMeKdA6Zoc8-30" style="edgeStyle=orthogonalEdgeStyle;rounded=0;orthogonalLoop=1;jettySize=auto;html=1;exitX=1;exitY=0.5;exitDx=0;exitDy=0;entryX=0;entryY=0.5;entryDx=0;entryDy=0;" edge="1" parent="WIyWlLk6GJQsqaUBKTNV-1" source="_EIms9iZTKMeKdA6Zoc8-28" target="_EIms9iZTKMeKdA6Zoc8-29">
          <mxGeometry relative="1" as="geometry" />
        </mxCell>
        <mxCell id="_EIms9iZTKMeKdA6Zoc8-28" value="Display warnings" style="rounded=0;whiteSpace=wrap;html=1;fillColor=#d5e8d4;strokeColor=#82b366;" vertex="1" parent="WIyWlLk6GJQsqaUBKTNV-1">
          <mxGeometry x="640" y="150" width="120" height="60" as="geometry" />
        </mxCell>
        <mxCell id="_EIms9iZTKMeKdA6Zoc8-29" value="Clear all inputs" style="rounded=0;whiteSpace=wrap;html=1;fillColor=#d5e8d4;strokeColor=#82b366;" vertex="1" parent="WIyWlLk6GJQsqaUBKTNV-1">
          <mxGeometry x="840" y="150" width="120" height="60" as="geometry" />
        </mxCell>
        <mxCell id="_EIms9iZTKMeKdA6Zoc8-32" style="edgeStyle=orthogonalEdgeStyle;rounded=0;orthogonalLoop=1;jettySize=auto;html=1;exitX=1;exitY=0.5;exitDx=0;exitDy=0;" edge="1" parent="WIyWlLk6GJQsqaUBKTNV-1" source="_EIms9iZTKMeKdA6Zoc8-31">
          <mxGeometry relative="1" as="geometry">
            <mxPoint x="240" y="300" as="targetPoint" />
          </mxGeometry>
        </mxCell>
        <mxCell id="_EIms9iZTKMeKdA6Zoc8-31" value="User logs in" style="rounded=1;whiteSpace=wrap;html=1;fillColor=#fff2cc;strokeColor=#d6b656;" vertex="1" parent="WIyWlLk6GJQsqaUBKTNV-1">
          <mxGeometry x="40" y="270" width="120" height="60" as="geometry" />
        </mxCell>
        <mxCell id="_EIms9iZTKMeKdA6Zoc8-34" style="edgeStyle=orthogonalEdgeStyle;rounded=0;orthogonalLoop=1;jettySize=auto;html=1;exitX=1;exitY=0.5;exitDx=0;exitDy=0;" edge="1" parent="WIyWlLk6GJQsqaUBKTNV-1" source="_EIms9iZTKMeKdA6Zoc8-33">
          <mxGeometry relative="1" as="geometry">
            <mxPoint x="440" y="300" as="targetPoint" />
          </mxGeometry>
        </mxCell>
        <mxCell id="_EIms9iZTKMeKdA6Zoc8-35" style="edgeStyle=orthogonalEdgeStyle;rounded=0;orthogonalLoop=1;jettySize=auto;html=1;exitX=0.5;exitY=0;exitDx=0;exitDy=0;" edge="1" parent="WIyWlLk6GJQsqaUBKTNV-1" source="_EIms9iZTKMeKdA6Zoc8-33">
          <mxGeometry relative="1" as="geometry">
            <mxPoint x="640" y="180" as="targetPoint" />
            <Array as="points">
              <mxPoint x="300" y="180" />
            </Array>
          </mxGeometry>
        </mxCell>
        <mxCell id="_EIms9iZTKMeKdA6Zoc8-33" value="Correct&lt;br&gt;credentials?" style="rhombus;whiteSpace=wrap;html=1;fillColor=#dae8fc;strokeColor=#6c8ebf;rounded=0;" vertex="1" parent="WIyWlLk6GJQsqaUBKTNV-1">
          <mxGeometry x="240" y="260" width="120" height="80" as="geometry" />
        </mxCell>
        <mxCell id="_EIms9iZTKMeKdA6Zoc8-36" value="No" style="text;html=1;strokeColor=none;fillColor=none;align=center;verticalAlign=middle;whiteSpace=wrap;rounded=0;" vertex="1" parent="WIyWlLk6GJQsqaUBKTNV-1">
          <mxGeometry x="290" y="210" width="60" height="30" as="geometry" />
        </mxCell>
        <mxCell id="_EIms9iZTKMeKdA6Zoc8-37" value="Yes" style="text;html=1;strokeColor=none;fillColor=none;align=center;verticalAlign=middle;whiteSpace=wrap;rounded=0;" vertex="1" parent="WIyWlLk6GJQsqaUBKTNV-1">
          <mxGeometry x="370" y="270" width="60" height="30" as="geometry" />
        </mxCell>
        <mxCell id="_EIms9iZTKMeKdA6Zoc8-40" style="edgeStyle=orthogonalEdgeStyle;rounded=0;orthogonalLoop=1;jettySize=auto;html=1;exitX=0.5;exitY=0;exitDx=0;exitDy=0;entryX=0.5;entryY=1;entryDx=0;entryDy=0;" edge="1" parent="WIyWlLk6GJQsqaUBKTNV-1" source="_EIms9iZTKMeKdA6Zoc8-39" target="_EIms9iZTKMeKdA6Zoc8-21">
          <mxGeometry relative="1" as="geometry" />
        </mxCell>
        <mxCell id="_EIms9iZTKMeKdA6Zoc8-39" value="User clicks &#39;Back&lt;br&gt;to main page&#39;" style="rounded=1;whiteSpace=wrap;html=1;fillColor=#fff2cc;strokeColor=#d6b656;" vertex="1" parent="WIyWlLk6GJQsqaUBKTNV-1">
          <mxGeometry x="1040" y="150" width="120" height="60" as="geometry" />
        </mxCell>
        <mxCell id="_EIms9iZTKMeKdA6Zoc8-46" value="Hide login UI,&lt;br&gt;display app UI" style="rounded=0;whiteSpace=wrap;html=1;fillColor=#d5e8d4;strokeColor=#82b366;" vertex="1" parent="WIyWlLk6GJQsqaUBKTNV-1">
          <mxGeometry x="640" y="270" width="120" height="60" as="geometry" />
        </mxCell>
        <mxCell id="_EIms9iZTKMeKdA6Zoc8-48" style="edgeStyle=orthogonalEdgeStyle;rounded=0;orthogonalLoop=1;jettySize=auto;html=1;exitX=1;exitY=0.5;exitDx=0;exitDy=0;entryX=0;entryY=0.5;entryDx=0;entryDy=0;" edge="1" parent="WIyWlLk6GJQsqaUBKTNV-1" source="_EIms9iZTKMeKdA6Zoc8-47" target="_EIms9iZTKMeKdA6Zoc8-46">
          <mxGeometry relative="1" as="geometry" />
        </mxCell>
        <mxCell id="_EIms9iZTKMeKdA6Zoc8-47" value="Update all&lt;br&gt;elements with account data" style="rounded=0;whiteSpace=wrap;html=1;fillColor=#d5e8d4;strokeColor=#82b366;" vertex="1" parent="WIyWlLk6GJQsqaUBKTNV-1">
          <mxGeometry x="440" y="270" width="120" height="60" as="geometry" />
        </mxCell>
        <mxCell id="_EIms9iZTKMeKdA6Zoc8-50" style="edgeStyle=orthogonalEdgeStyle;rounded=0;orthogonalLoop=1;jettySize=auto;html=1;exitX=1;exitY=0.5;exitDx=0;exitDy=0;entryX=1;entryY=0.5;entryDx=0;entryDy=0;" edge="1" parent="WIyWlLk6GJQsqaUBKTNV-1" source="_EIms9iZTKMeKdA6Zoc8-49" target="_EIms9iZTKMeKdA6Zoc8-51">
          <mxGeometry relative="1" as="geometry">
            <mxPoint x="240" y="420" as="targetPoint" />
            <Array as="points">
              <mxPoint x="1020" y="300" />
              <mxPoint x="1020" y="300" />
            </Array>
          </mxGeometry>
        </mxCell>
        <mxCell id="_EIms9iZTKMeKdA6Zoc8-49" value="User logs out" style="rounded=1;whiteSpace=wrap;html=1;fillColor=#fff2cc;strokeColor=#d6b656;" vertex="1" parent="WIyWlLk6GJQsqaUBKTNV-1">
          <mxGeometry x="1040" y="270" width="120" height="60" as="geometry" />
        </mxCell>
        <mxCell id="_EIms9iZTKMeKdA6Zoc8-51" value="Hide app UI,&lt;br&gt;display login UI" style="rounded=0;whiteSpace=wrap;html=1;fillColor=#d5e8d4;strokeColor=#82b366;" vertex="1" parent="WIyWlLk6GJQsqaUBKTNV-1">
          <mxGeometry x="840" y="270" width="120" height="60" as="geometry" />
        </mxCell>
        <mxCell id="_EIms9iZTKMeKdA6Zoc8-54" style="edgeStyle=orthogonalEdgeStyle;rounded=0;orthogonalLoop=1;jettySize=auto;html=1;exitX=1;exitY=0.5;exitDx=0;exitDy=0;" edge="1" parent="WIyWlLk6GJQsqaUBKTNV-1" source="_EIms9iZTKMeKdA6Zoc8-53">
          <mxGeometry relative="1" as="geometry">
            <mxPoint x="240" y="420" as="targetPoint" />
          </mxGeometry>
        </mxCell>
        <mxCell id="_EIms9iZTKMeKdA6Zoc8-53" value="User adds new&lt;br&gt;income/spending" style="rounded=1;whiteSpace=wrap;html=1;fillColor=#fff2cc;strokeColor=#d6b656;" vertex="1" parent="WIyWlLk6GJQsqaUBKTNV-1">
          <mxGeometry x="40" y="390" width="120" height="60" as="geometry" />
        </mxCell>
        <mxCell id="_EIms9iZTKMeKdA6Zoc8-56" style="edgeStyle=orthogonalEdgeStyle;rounded=0;orthogonalLoop=1;jettySize=auto;html=1;exitX=1;exitY=0.5;exitDx=0;exitDy=0;" edge="1" parent="WIyWlLk6GJQsqaUBKTNV-1" source="_EIms9iZTKMeKdA6Zoc8-55">
          <mxGeometry relative="1" as="geometry">
            <mxPoint x="440" y="420" as="targetPoint" />
          </mxGeometry>
        </mxCell>
        <mxCell id="_EIms9iZTKMeKdA6Zoc8-57" style="edgeStyle=orthogonalEdgeStyle;rounded=0;orthogonalLoop=1;jettySize=auto;html=1;exitX=0.5;exitY=1;exitDx=0;exitDy=0;" edge="1" parent="WIyWlLk6GJQsqaUBKTNV-1" source="_EIms9iZTKMeKdA6Zoc8-55">
          <mxGeometry relative="1" as="geometry">
            <mxPoint x="300" y="510" as="targetPoint" />
          </mxGeometry>
        </mxCell>
        <mxCell id="_EIms9iZTKMeKdA6Zoc8-55" value="All data correctly&lt;br&gt;indicated?" style="rhombus;whiteSpace=wrap;html=1;fillColor=#dae8fc;strokeColor=#6c8ebf;rounded=0;" vertex="1" parent="WIyWlLk6GJQsqaUBKTNV-1">
          <mxGeometry x="240" y="380" width="120" height="80" as="geometry" />
        </mxCell>
        <mxCell id="_EIms9iZTKMeKdA6Zoc8-58" value="Yes" style="text;html=1;strokeColor=none;fillColor=none;align=center;verticalAlign=middle;whiteSpace=wrap;rounded=0;" vertex="1" parent="WIyWlLk6GJQsqaUBKTNV-1">
          <mxGeometry x="370" y="390" width="60" height="30" as="geometry" />
        </mxCell>
        <mxCell id="_EIms9iZTKMeKdA6Zoc8-60" style="edgeStyle=orthogonalEdgeStyle;rounded=0;orthogonalLoop=1;jettySize=auto;html=1;exitX=1;exitY=0.5;exitDx=0;exitDy=0;" edge="1" parent="WIyWlLk6GJQsqaUBKTNV-1" source="_EIms9iZTKMeKdA6Zoc8-59">
          <mxGeometry relative="1" as="geometry">
            <mxPoint x="640" y="420" as="targetPoint" />
          </mxGeometry>
        </mxCell>
        <mxCell id="_EIms9iZTKMeKdA6Zoc8-59" value="Add new element&lt;br&gt;to the proper array" style="rounded=0;whiteSpace=wrap;html=1;fillColor=#d5e8d4;strokeColor=#82b366;" vertex="1" parent="WIyWlLk6GJQsqaUBKTNV-1">
          <mxGeometry x="440" y="390" width="120" height="60" as="geometry" />
        </mxCell>
        <mxCell id="_EIms9iZTKMeKdA6Zoc8-62" style="edgeStyle=orthogonalEdgeStyle;rounded=0;orthogonalLoop=1;jettySize=auto;html=1;exitX=1;exitY=0.5;exitDx=0;exitDy=0;" edge="1" parent="WIyWlLk6GJQsqaUBKTNV-1" source="_EIms9iZTKMeKdA6Zoc8-61">
          <mxGeometry relative="1" as="geometry">
            <mxPoint x="840" y="420" as="targetPoint" />
          </mxGeometry>
        </mxCell>
        <mxCell id="_EIms9iZTKMeKdA6Zoc8-61" value="Update lists" style="rounded=0;whiteSpace=wrap;html=1;fillColor=#d5e8d4;strokeColor=#82b366;" vertex="1" parent="WIyWlLk6GJQsqaUBKTNV-1">
          <mxGeometry x="640" y="390" width="120" height="60" as="geometry" />
        </mxCell>
        <mxCell id="_EIms9iZTKMeKdA6Zoc8-66" style="edgeStyle=orthogonalEdgeStyle;rounded=0;orthogonalLoop=1;jettySize=auto;html=1;exitX=1;exitY=0.5;exitDx=0;exitDy=0;" edge="1" parent="WIyWlLk6GJQsqaUBKTNV-1" source="_EIms9iZTKMeKdA6Zoc8-65">
          <mxGeometry relative="1" as="geometry">
            <mxPoint x="1040" y="420" as="targetPoint" />
          </mxGeometry>
        </mxCell>
        <mxCell id="_EIms9iZTKMeKdA6Zoc8-67" style="edgeStyle=orthogonalEdgeStyle;rounded=0;orthogonalLoop=1;jettySize=auto;html=1;exitX=0.5;exitY=1;exitDx=0;exitDy=0;" edge="1" parent="WIyWlLk6GJQsqaUBKTNV-1" source="_EIms9iZTKMeKdA6Zoc8-65">
          <mxGeometry relative="1" as="geometry">
            <mxPoint x="900" y="510" as="targetPoint" />
          </mxGeometry>
        </mxCell>
        <mxCell id="_EIms9iZTKMeKdA6Zoc8-65" value="Is expected savings % passed?" style="rhombus;whiteSpace=wrap;html=1;fillColor=#dae8fc;strokeColor=#6c8ebf;rounded=0;" vertex="1" parent="WIyWlLk6GJQsqaUBKTNV-1">
          <mxGeometry x="840" y="380" width="120" height="80" as="geometry" />
        </mxCell>
        <mxCell id="_EIms9iZTKMeKdA6Zoc8-68" value="No" style="text;html=1;strokeColor=none;fillColor=none;align=center;verticalAlign=middle;whiteSpace=wrap;rounded=0;" vertex="1" parent="WIyWlLk6GJQsqaUBKTNV-1">
          <mxGeometry x="970" y="390" width="60" height="30" as="geometry" />
        </mxCell>
        <mxCell id="_EIms9iZTKMeKdA6Zoc8-69" value="Display basic&lt;br&gt;summary" style="rounded=0;whiteSpace=wrap;html=1;fillColor=#d5e8d4;strokeColor=#82b366;" vertex="1" parent="WIyWlLk6GJQsqaUBKTNV-1">
          <mxGeometry x="1040" y="390" width="120" height="60" as="geometry" />
        </mxCell>
        <mxCell id="_EIms9iZTKMeKdA6Zoc8-70" value="Yes" style="text;html=1;strokeColor=none;fillColor=none;align=center;verticalAlign=middle;whiteSpace=wrap;rounded=0;" vertex="1" parent="WIyWlLk6GJQsqaUBKTNV-1">
          <mxGeometry x="890" y="470" width="60" height="30" as="geometry" />
        </mxCell>
        <mxCell id="_EIms9iZTKMeKdA6Zoc8-71" value="Display full&lt;br&gt;summary" style="rounded=0;whiteSpace=wrap;html=1;fillColor=#d5e8d4;strokeColor=#82b366;" vertex="1" parent="WIyWlLk6GJQsqaUBKTNV-1">
          <mxGeometry x="840" y="510" width="120" height="60" as="geometry" />
        </mxCell>
        <mxCell id="_EIms9iZTKMeKdA6Zoc8-73" value="No" style="text;html=1;strokeColor=none;fillColor=none;align=center;verticalAlign=middle;whiteSpace=wrap;rounded=0;" vertex="1" parent="WIyWlLk6GJQsqaUBKTNV-1">
          <mxGeometry x="290" y="470" width="60" height="30" as="geometry" />
        </mxCell>
        <mxCell id="_EIms9iZTKMeKdA6Zoc8-75" style="edgeStyle=orthogonalEdgeStyle;rounded=0;orthogonalLoop=1;jettySize=auto;html=1;exitX=1;exitY=0.5;exitDx=0;exitDy=0;" edge="1" parent="WIyWlLk6GJQsqaUBKTNV-1" source="_EIms9iZTKMeKdA6Zoc8-74">
          <mxGeometry relative="1" as="geometry">
            <mxPoint x="440" y="540" as="targetPoint" />
          </mxGeometry>
        </mxCell>
        <mxCell id="_EIms9iZTKMeKdA6Zoc8-74" value="Display warning" style="rounded=0;whiteSpace=wrap;html=1;fillColor=#d5e8d4;strokeColor=#82b366;" vertex="1" parent="WIyWlLk6GJQsqaUBKTNV-1">
          <mxGeometry x="240" y="510" width="120" height="60" as="geometry" />
        </mxCell>
        <mxCell id="_EIms9iZTKMeKdA6Zoc8-77" value="Clear all inputs" style="rounded=0;whiteSpace=wrap;html=1;fillColor=#d5e8d4;strokeColor=#82b366;" vertex="1" parent="WIyWlLk6GJQsqaUBKTNV-1">
          <mxGeometry x="440" y="510" width="120" height="60" as="geometry" />
        </mxCell>
        <mxCell id="_EIms9iZTKMeKdA6Zoc8-79" style="edgeStyle=orthogonalEdgeStyle;rounded=0;orthogonalLoop=1;jettySize=auto;html=1;exitX=1;exitY=0.5;exitDx=0;exitDy=0;" edge="1" parent="WIyWlLk6GJQsqaUBKTNV-1" source="_EIms9iZTKMeKdA6Zoc8-78">
          <mxGeometry relative="1" as="geometry">
            <mxPoint x="240" y="660" as="targetPoint" />
          </mxGeometry>
        </mxCell>
        <mxCell id="_EIms9iZTKMeKdA6Zoc8-78" value="User deletes&lt;br&gt;income/spending" style="rounded=1;whiteSpace=wrap;html=1;fillColor=#fff2cc;strokeColor=#d6b656;" vertex="1" parent="WIyWlLk6GJQsqaUBKTNV-1">
          <mxGeometry x="40" y="630" width="120" height="60" as="geometry" />
        </mxCell>
        <mxCell id="_EIms9iZTKMeKdA6Zoc8-81" style="edgeStyle=orthogonalEdgeStyle;rounded=0;orthogonalLoop=1;jettySize=auto;html=1;exitX=1;exitY=0.5;exitDx=0;exitDy=0;" edge="1" parent="WIyWlLk6GJQsqaUBKTNV-1" source="_EIms9iZTKMeKdA6Zoc8-80">
          <mxGeometry relative="1" as="geometry">
            <mxPoint x="690" y="450" as="targetPoint" />
            <Array as="points">
              <mxPoint x="690" y="660" />
              <mxPoint x="690" y="450" />
            </Array>
          </mxGeometry>
        </mxCell>
        <mxCell id="_EIms9iZTKMeKdA6Zoc8-80" value="Remove element&lt;br&gt;from the proper&lt;br&gt;array" style="rounded=0;whiteSpace=wrap;html=1;fillColor=#d5e8d4;strokeColor=#82b366;" vertex="1" parent="WIyWlLk6GJQsqaUBKTNV-1">
          <mxGeometry x="240" y="630" width="120" height="60" as="geometry" />
        </mxCell>
        <mxCell id="_EIms9iZTKMeKdA6Zoc8-83" style="edgeStyle=orthogonalEdgeStyle;rounded=0;orthogonalLoop=1;jettySize=auto;html=1;exitX=1;exitY=0.5;exitDx=0;exitDy=0;" edge="1" parent="WIyWlLk6GJQsqaUBKTNV-1" source="_EIms9iZTKMeKdA6Zoc8-82">
          <mxGeometry relative="1" as="geometry">
            <mxPoint x="240" y="780" as="targetPoint" />
          </mxGeometry>
        </mxCell>
        <mxCell id="_EIms9iZTKMeKdA6Zoc8-82" value="User clicks on&lt;br&gt;&#39;sort&#39;" style="rounded=1;whiteSpace=wrap;html=1;fillColor=#fff2cc;strokeColor=#d6b656;" vertex="1" parent="WIyWlLk6GJQsqaUBKTNV-1">
          <mxGeometry x="40" y="750" width="120" height="60" as="geometry" />
        </mxCell>
        <mxCell id="_EIms9iZTKMeKdA6Zoc8-85" style="edgeStyle=orthogonalEdgeStyle;rounded=0;orthogonalLoop=1;jettySize=auto;html=1;exitX=1;exitY=0.5;exitDx=0;exitDy=0;" edge="1" parent="WIyWlLk6GJQsqaUBKTNV-1" source="_EIms9iZTKMeKdA6Zoc8-84">
          <mxGeometry relative="1" as="geometry">
            <mxPoint x="690" y="450" as="targetPoint" />
            <Array as="points">
              <mxPoint x="690" y="780" />
              <mxPoint x="690" y="450" />
            </Array>
          </mxGeometry>
        </mxCell>
        <mxCell id="_EIms9iZTKMeKdA6Zoc8-84" value="Sort the lists by the&lt;br&gt;value" style="rounded=0;whiteSpace=wrap;html=1;fillColor=#d5e8d4;strokeColor=#82b366;" vertex="1" parent="WIyWlLk6GJQsqaUBKTNV-1">
          <mxGeometry x="240" y="750" width="120" height="60" as="geometry" />
        </mxCell>
        <mxCell id="_EIms9iZTKMeKdA6Zoc8-88" style="edgeStyle=orthogonalEdgeStyle;rounded=0;orthogonalLoop=1;jettySize=auto;html=1;exitX=0;exitY=0.5;exitDx=0;exitDy=0;entryX=0.5;entryY=1;entryDx=0;entryDy=0;" edge="1" parent="WIyWlLk6GJQsqaUBKTNV-1" source="_EIms9iZTKMeKdA6Zoc8-87" target="_EIms9iZTKMeKdA6Zoc8-89">
          <mxGeometry relative="1" as="geometry">
            <mxPoint x="960" y="660" as="targetPoint" />
            <Array as="points">
              <mxPoint x="900" y="780" />
            </Array>
          </mxGeometry>
        </mxCell>
        <mxCell id="_EIms9iZTKMeKdA6Zoc8-87" value="User clicks on&lt;br&gt;&#39;clear all&#39;" style="rounded=1;whiteSpace=wrap;html=1;fillColor=#fff2cc;strokeColor=#d6b656;" vertex="1" parent="WIyWlLk6GJQsqaUBKTNV-1">
          <mxGeometry x="840" y="750" width="120" height="60" as="geometry" />
        </mxCell>
        <mxCell id="_EIms9iZTKMeKdA6Zoc8-91" style="edgeStyle=orthogonalEdgeStyle;rounded=0;orthogonalLoop=1;jettySize=auto;html=1;exitX=0;exitY=0.5;exitDx=0;exitDy=0;" edge="1" parent="WIyWlLk6GJQsqaUBKTNV-1" source="_EIms9iZTKMeKdA6Zoc8-89">
          <mxGeometry relative="1" as="geometry">
            <mxPoint x="710" y="450" as="targetPoint" />
            <Array as="points">
              <mxPoint x="710" y="660" />
              <mxPoint x="710" y="450" />
            </Array>
          </mxGeometry>
        </mxCell>
        <mxCell id="_EIms9iZTKMeKdA6Zoc8-89" value="Remove all elements&lt;br&gt;from both lists" style="rounded=0;whiteSpace=wrap;html=1;fillColor=#d5e8d4;strokeColor=#82b366;" vertex="1" parent="WIyWlLk6GJQsqaUBKTNV-1">
          <mxGeometry x="840" y="630" width="120" height="60" as="geometry" />
        </mxCell>
        <mxCell id="_EIms9iZTKMeKdA6Zoc8-93" style="edgeStyle=orthogonalEdgeStyle;rounded=0;orthogonalLoop=1;jettySize=auto;html=1;exitX=1;exitY=0.5;exitDx=0;exitDy=0;" edge="1" parent="WIyWlLk6GJQsqaUBKTNV-1" source="_EIms9iZTKMeKdA6Zoc8-92">
          <mxGeometry relative="1" as="geometry">
            <mxPoint x="240" y="900" as="targetPoint" />
          </mxGeometry>
        </mxCell>
        <mxCell id="_EIms9iZTKMeKdA6Zoc8-92" value="User defines the&lt;br&gt;expected savings&lt;br&gt;percentage" style="rounded=1;whiteSpace=wrap;html=1;fillColor=#fff2cc;strokeColor=#d6b656;" vertex="1" parent="WIyWlLk6GJQsqaUBKTNV-1">
          <mxGeometry x="40" y="870" width="120" height="60" as="geometry" />
        </mxCell>
        <mxCell id="_EIms9iZTKMeKdA6Zoc8-95" style="edgeStyle=orthogonalEdgeStyle;rounded=0;orthogonalLoop=1;jettySize=auto;html=1;exitX=1;exitY=0.5;exitDx=0;exitDy=0;" edge="1" parent="WIyWlLk6GJQsqaUBKTNV-1" source="_EIms9iZTKMeKdA6Zoc8-94">
          <mxGeometry relative="1" as="geometry">
            <mxPoint x="440" y="900" as="targetPoint" />
          </mxGeometry>
        </mxCell>
        <mxCell id="_EIms9iZTKMeKdA6Zoc8-94" value="Calculate the&lt;br&gt;necessary amount" style="rounded=0;whiteSpace=wrap;html=1;fillColor=#d5e8d4;strokeColor=#82b366;" vertex="1" parent="WIyWlLk6GJQsqaUBKTNV-1">
          <mxGeometry x="240" y="870" width="120" height="60" as="geometry" />
        </mxCell>
        <mxCell id="_EIms9iZTKMeKdA6Zoc8-97" style="edgeStyle=orthogonalEdgeStyle;rounded=0;orthogonalLoop=1;jettySize=auto;html=1;exitX=1;exitY=0.5;exitDx=0;exitDy=0;entryX=1;entryY=0.5;entryDx=0;entryDy=0;" edge="1" parent="WIyWlLk6GJQsqaUBKTNV-1" source="_EIms9iZTKMeKdA6Zoc8-96" target="_EIms9iZTKMeKdA6Zoc8-71">
          <mxGeometry relative="1" as="geometry">
            <mxPoint x="1100" y="540" as="targetPoint" />
            <Array as="points">
              <mxPoint x="1100" y="900" />
              <mxPoint x="1100" y="540" />
            </Array>
          </mxGeometry>
        </mxCell>
        <mxCell id="_EIms9iZTKMeKdA6Zoc8-96" value="Check incomes &amp;amp; spendings in hierarchy" style="rounded=0;whiteSpace=wrap;html=1;fillColor=#d5e8d4;strokeColor=#82b366;" vertex="1" parent="WIyWlLk6GJQsqaUBKTNV-1">
          <mxGeometry x="440" y="870" width="120" height="60" as="geometry" />
        </mxCell>
      </root>
    </mxGraphModel>
  </diagram>
</mxfile>
